<?xml version="1.0" standalone="no"?>
<!DOCTYPE svg PUBLIC "-//W3C//DTD SVG 20010904//EN"
 "http://www.w3.org/TR/2001/REC-SVG-20010904/DTD/svg10.dtd">
<svg version="1.0" xmlns="http://www.w3.org/2000/svg"
 width="321.000000pt" height="321.000000pt" viewBox="0 0 321.000000 321.000000"
 preserveAspectRatio="xMidYMid meet">
<metadata>
Created by potrace 1.14, written by Peter Selinger 2001-2017
</metadata>
<g transform="translate(0.000000,321.000000) scale(0.100000,-0.100000)"
fill="#000000" stroke="none">
<path d="M1699 2977 c-15 -12 -43 -47 -63 -77 -19 -30 -58 -86 -86 -125 -78
-107 -108 -175 -120 -273 0 -2 -5 0 -11 4 -19 11 -139 52 -139 47 0 -3 9 -18
20 -33 32 -45 18 -103 -49 -202 -18 -27 -39 -83 -55 -147 -14 -58 -29 -107
-31 -110 -3 -3 -9 6 -12 19 -4 13 -29 69 -56 124 -50 102 -90 149 -192 231
-27 22 -77 65 -110 96 -133 126 -174 143 -354 153 -93 5 -112 10 -163 42 -69
44 -77 34 -73 -94 4 -118 30 -211 100 -357 35 -71 66 -141 70 -155 4 -14 27
-61 50 -105 64 -118 128 -173 263 -226 15 -6 22 -17 22 -34 0 -22 4 -25 34
-25 27 0 43 -9 78 -44 67 -67 166 -138 245 -174 70 -32 82 -36 153 -48 77 -13
127 -34 139 -60 16 -35 15 -36 -16 -21 -42 22 -151 46 -244 56 -85 8 -274 6
-319 -4 -14 -3 -38 -8 -55 -10 -71 -13 -144 -40 -232 -86 -52 -27 -100 -55
-107 -61 -8 -7 -35 -31 -62 -53 -169 -141 -301 -327 -320 -450 -7 -49 10 -145
36 -195 23 -46 59 -78 68 -63 20 33 97 69 212 100 216 59 457 194 631 355 105
97 189 168 243 206 62 44 128 82 144 82 5 0 1 -44 -9 -98 -19 -109 -19 -150 6
-267 21 -102 58 -182 125 -270 56 -74 58 -76 135 -155 47 -48 143 -103 245
-141 19 -8 62 -32 96 -55 96 -66 100 -67 130 -47 27 17 31 19 67 26 29 6 37
21 61 118 13 52 38 123 55 158 42 87 55 171 47 295 -11 154 -53 258 -145 358
-24 27 -51 58 -59 69 -13 19 -13 20 14 16 16 -3 43 -10 59 -17 33 -13 209
-123 240 -151 44 -38 247 -118 343 -134 71 -12 161 -9 199 7 21 9 67 22 103
28 36 7 84 23 107 36 l41 25 -49 75 c-28 41 -53 83 -56 92 -20 53 -111 149
-213 223 -181 132 -261 167 -400 174 -41 2 -76 4 -78 4 -2 1 5 13 15 29 28 40
79 148 100 214 19 55 19 57 1 61 -15 4 -12 12 24 50 102 108 170 211 223 342
20 50 52 123 71 162 19 40 39 95 45 123 15 68 3 82 -63 76 -28 -3 -84 2 -127
11 -213 43 -381 -11 -580 -186 -67 -59 -93 -80 -101 -81 -3 0 -5 66 -6 148 -1
181 -5 192 -138 326 -103 104 -122 112 -167 73z m434 -1417 c-4 -4 -24 -13
-43 -20 -19 -8 -59 -29 -89 -47 -29 -19 -56 -32 -59 -29 -3 3 0 6 6 6 6 0 17
18 23 40 13 42 21 46 109 52 59 5 61 5 53 -2z"/>
</g>
</svg>
